# xmcd
#
# Track frame offsets:
#	150
#	17078
#	37370
#	57036
#	79873
#	98156
#	114009
#	134688
#	154242
#	183127
#	205339
#
# Disc length: 2951 seconds
# Revision: 0
# Processed by: cddbd v1.5.2PL0 Copyright (c) Steve Scherf et al.
# Submitted via: dBpowerAMP V12.0
#
DISCID=8f0b850b
DTITLE=Eliza Gilkyson - Beautiful World
DYEAR=2008
DGENRE=Folk
TTITLE0=Emerald Street
TTITLE1=Wildewood Spring
TTITLE2=The Party's Over
TTITLE3=Great Correction
TTITLE4=Clever Disguise
TTITLE5=Dream Lover
TTITLE6=He Waits for Me
TTITLE7=Runaway Train
TTITLE8=Beautiful World
TTITLE9=Rare Bird
TTITLE10=Unsustainable
EXTD=
EXTT0=
EXTT1=
EXTT2=
EXTT3=
EXTT4=
EXTT5=
EXTT6=
EXTT7=
EXTT8=
EXTT9=
EXTT10=
PLAYORDER=
